<?xml version="1.0" encoding="UTF-8"?>
<svg xmlns="http://www.w3.org/2000/svg" width="150" height="48" viewBox="0 0 300 96" role="img" aria-label="Pediment">
  <g fill="#0E7490" stroke="#0E7490" stroke-width="6" stroke-linejoin="round" transform="translate(8 8) scale(0.3125)">
    <path d="M24,104H48v64H32a8,8,0,0,0,0,16H224a8,8,0,0,0,0-16H208V104h24a8,8,0,0,0,4.19-14.81l-104-64a8,8,0,0,0-8.38,0l-104,64A8,8,0,0,0,24,104Zm40,0H96v64H64Zm80,0v64H112V104Zm48,64H160V104h32ZM128,41.39,203.74,88H52.26ZM248,208a8,8,0,0,1-8,8H16a8,8,0,0,1,0-16H240A8,8,0,0,1,248,208Z"/>
  </g>
  <text x="108" y="62" font-family="-apple-system, BlinkMacSystemFont, 'Segoe UI', system-ui, sans-serif" font-weight="800" font-size="44" letter-spacing="-1" fill="#0f172a">Pediment</text>
</svg>
