<svg xmlns="http://www.w3.org/2000/svg" viewBox="0 0 30 30" width="30" height="30" role="img" aria-label="Brand mark">
  <defs>
    <linearGradient id="bm" x1="0" y1="0" x2="0.84" y2="1">
      <stop offset="0" stop-color="#0E7490"/>
      <stop offset="1" stop-color="#155E75"/>
    </linearGradient>
  </defs>
  <rect width="30" height="30" rx="9" fill="url(#bm)"/>
  <g transform="translate(6 6) scale(0.0703125)" fill="#ffffff">
    <path d="M24,104H48v64H32a8,8,0,0,0,0,16H224a8,8,0,0,0,0-16H208V104h24a8,8,0,0,0,4.19-14.81l-104-64a8,8,0,0,0-8.38,0l-104,64A8,8,0,0,0,24,104Zm40,0H96v64H64Zm80,0v64H112V104Zm48,64H160V104h32ZM128,41.39,203.74,88H52.26ZM248,208a8,8,0,0,1-8,8H16a8,8,0,0,1,0-16H240A8,8,0,0,1,248,208Z"/>
  </g>
</svg>
